<svg width="31" height="41" viewBox="0 0 31 41" fill="none" xmlns="http://www.w3.org/2000/svg">
<path d="M24.0671 19.035H6.97553C5.62704 19.035 4.53387 20.505 4.53387 22.3182V33.8094C4.53387 35.6227 5.62704 37.0926 6.97553 37.0926H24.0671C25.4156 37.0926 26.5087 35.6227 26.5087 33.8094V22.3182C26.5087 20.505 25.4156 19.035 24.0671 19.035Z" stroke="#110F0F" stroke-linecap="round" stroke-linejoin="round"/>
<path d="M9.41718 19.0351V12.4687C9.41718 10.2918 10.0603 8.2041 11.205 6.6648C12.3498 5.12551 13.9024 4.26074 15.5213 4.26074C17.1402 4.26074 18.6928 5.12551 19.8376 6.6648C20.9823 8.2041 21.6254 10.2918 21.6254 12.4687V19.0351" stroke="#110F0F" stroke-linecap="round" stroke-linejoin="round"/>
</svg>
